<?xml version="1.0" encoding="UTF-8"?><svg xmlns="http://www.w3.org/2000/svg" xmlns:xlink="http://www.w3.org/1999/xlink" fill-opacity="1" color-rendering="auto" color-interpolation="auto" text-rendering="auto" stroke="black" stroke-linecap="square" width="522" stroke-miterlimit="10" shape-rendering="auto" stroke-opacity="1" fill="black" stroke-dasharray="none" font-weight="normal" stroke-width="1" height="355" font-family="'Dialog'" font-style="normal" stroke-linejoin="miter" font-size="12px" stroke-dashoffset="0" image-rendering="auto">
  <!--Generated by ySVG 2.5-->
  <defs id="genericDefs"/>
  <g>
    <defs id="defs1">
      <clipPath clipPathUnits="userSpaceOnUse" id="clipPath1">
        <path d="M0 0 L522 0 L522 355 L0 355 L0 0 Z"/>
      </clipPath>
      <clipPath clipPathUnits="userSpaceOnUse" id="clipPath2">
        <path d="M-260 -15 L262 -15 L262 340 L-260 340 L-260 -15 Z"/>
      </clipPath>
    </defs>
    <g fill="white" text-rendering="geometricPrecision" shape-rendering="geometricPrecision" transform="translate(260,15)" stroke="white">
      <rect x="-260" width="522" height="355" y="-15" clip-path="url(#clipPath2)" stroke="none"/>
    </g>
    <g fill="rgb(255,204,0)" text-rendering="geometricPrecision" shape-rendering="geometricPrecision" transform="matrix(1,0,0,1,260,15)" stroke="rgb(255,204,0)">
      <path d="M16 221.5 L43.5 194 L71 221.5 L43.5 249 Z" fill-rule="evenodd" clip-path="url(#clipPath2)" stroke="none"/>
    </g>
    <g text-rendering="geometricPrecision" stroke-miterlimit="1.45" shape-rendering="geometricPrecision" transform="matrix(1,0,0,1,260,15)" stroke-linecap="butt">
      <path fill="none" d="M16 221.5 L43.5 194 L71 221.5 L43.5 249 Z" fill-rule="evenodd" clip-path="url(#clipPath2)"/>
    </g>
    <g fill="rgb(255,204,0)" text-rendering="geometricPrecision" shape-rendering="geometricPrecision" transform="matrix(1,0,0,1,260,15)" stroke="rgb(255,204,0)">
      <rect x="10" width="67" height="67" y="97" clip-path="url(#clipPath2)" stroke="none"/>
    </g>
    <g text-rendering="geometricPrecision" stroke-miterlimit="1.45" shape-rendering="geometricPrecision" transform="matrix(1,0,0,1,260,15)" stroke-linecap="butt">
      <rect fill="none" x="10" width="67" height="67" y="97" clip-path="url(#clipPath2)"/>
      <text x="12.3779" xml:space="preserve" y="134.6543" clip-path="url(#clipPath2)" font-family="sans-serif" stroke="none">puppeteer</text>
    </g>
    <g fill="rgb(255,204,0)" text-rendering="geometricPrecision" shape-rendering="geometricPrecision" transform="matrix(1,0,0,1,260,15)" stroke="rgb(255,204,0)">
      <rect x="10" width="67" height="67" y="0" clip-path="url(#clipPath2)" stroke="none"/>
    </g>
    <g text-rendering="geometricPrecision" stroke-miterlimit="1.45" shape-rendering="geometricPrecision" transform="matrix(1,0,0,1,260,15)" stroke-linecap="butt">
      <rect fill="none" x="10" width="67" height="67" y="0" clip-path="url(#clipPath2)"/>
      <text x="18.8584" xml:space="preserve" y="37.6543" clip-path="url(#clipPath2)" font-family="sans-serif" stroke="none">electron</text>
    </g>
    <g fill="rgb(255,204,0)" text-rendering="geometricPrecision" shape-rendering="geometricPrecision" transform="matrix(1,0,0,1,260,15)" stroke="rgb(255,204,0)">
      <rect x="-245" width="67" height="67" y="188" clip-path="url(#clipPath2)" stroke="none"/>
    </g>
    <g text-rendering="geometricPrecision" stroke-miterlimit="1.45" shape-rendering="geometricPrecision" transform="matrix(1,0,0,1,260,15)" stroke-linecap="butt">
      <rect fill="none" x="-245" width="67" height="67" y="188" clip-path="url(#clipPath2)"/>
      <text x="-234.2754" xml:space="preserve" y="225.6543" clip-path="url(#clipPath2)" font-family="sans-serif" stroke="none">chrome</text>
      <path fill="none" d="M43.5 164 L43.5 186" clip-path="url(#clipPath2)"/>
      <path d="M43.5 194 L48.5 182 L43.5 185 L38.5 182 Z" clip-path="url(#clipPath2)" stroke="none"/>
      <path fill="none" d="M70.9695 221.5 L238.5 221.5 L238.5 33.5 L85 33.5" clip-path="url(#clipPath2)"/>
      <path d="M77 33.5 L89 38.5 L86 33.5 L89 28.5 Z" clip-path="url(#clipPath2)" stroke="none"/>
      <text x="110.5024" xml:space="preserve" y="238.6543" clip-path="url(#clipPath2)" font-family="sans-serif" stroke="none">debug-port = 8315</text>
      <path fill="none" d="M43.5 67 L43.5 88.9707" clip-path="url(#clipPath2)"/>
      <path d="M43.5 96.9707 L48.5 84.9707 L43.5 87.9707 L38.5 84.9707 Z" clip-path="url(#clipPath2)" stroke="none"/>
      <path fill="none" d="M43.5 249.0175 L43.5 325 L-211.5 325 L-211.5 263" clip-path="url(#clipPath2)"/>
      <path d="M-211.5 255 L-216.5 267 L-211.5 264 L-206.5 267 Z" clip-path="url(#clipPath2)" stroke="none"/>
      <text x="-138.9951" xml:space="preserve" y="315.1465" clip-path="url(#clipPath2)" font-family="sans-serif" stroke="none">debug-port = 9222</text>
    </g>
  </g>
</svg>
